<svg id="Layer_1" data-name="Layer 1" xmlns="http://www.w3.org/2000/svg" xmlns:xlink="http://www.w3.org/1999/xlink" viewBox="0 0 360 85"><defs><style>.cls-1{fill:#fff;}.cls-2{clip-path:url(#clip-path);}.cls-3{fill:#fff;}.cls-4{fill:#7a7a79;}</style><clipPath id="clip-path"><rect class="cls-1" width="359.54" height="85"/></clipPath></defs><title>Artboard 1</title><g class="cls-2"><path class="cls-3" d="M25.38,31.83c0,1.08-.49,1.57-1.58,1.57H18.33V16.52H23.8c1.09,0,1.58.48,1.58,1.58Zm0,35.08c0,1.09-.49,1.58-1.58,1.58H18.33V49.91H23.8c1.09,0,1.58.48,1.58,1.58ZM43.71,31V13a13,13,0,0,0-13-13H0V85H30.71a13,13,0,0,0,13-13V50.76a9.91,9.91,0,0,0-7.17-9.83c5.71-1.58,7.17-6.8,7.17-9.95"/><path class="cls-4" d="M92.28,34.13V13a13,13,0,0,0-13-13H61.56a13,13,0,0,0-13,13V72a13,13,0,0,0,13,13H79.29a13,13,0,0,0,13-13V50.63H74V66.91a1.38,1.38,0,0,1-1.58,1.58H68.49c-1.1,0-1.59-.5-1.59-1.58V18.1c0-1.1.49-1.57,1.59-1.57h3.88c1.08,0,1.58.47,1.58,1.57v16Z"/></g><path class="cls-4" d="M97.15,85h36.9V68.49H97.15Zm0-34.36h36.9V34.13H97.15Zm0-34.12h36.9V0H97.15Z"/><polygon class="cls-4" points="165.13 0 165.13 37.89 156.88 0 138.91 0 138.91 85 156.88 85 156.88 45.29 165.13 85 183.11 85 183.11 0 165.13 0"/><polygon class="cls-4" points="186.75 0 186.75 16.52 197.44 16.52 197.44 85 215.77 85 215.77 16.52 226.47 16.52 226.47 0 186.75 0"/><g class="cls-2"><path class="cls-4" d="M255.48,34.25a1.37,1.37,0,0,1-1.58,1.58h-5.47V16.52h5.47c1.08,0,1.58.48,1.58,1.58Zm18.33,38.49V53.92a9.92,9.92,0,0,0-7.16-9.84c5.71-1.57,7.16-6.8,7.16-9.95V13a13,13,0,0,0-13-13H230.1V85h18.33V52.34h3.29a3.45,3.45,0,0,1,3.76,3.77v14A88.85,88.85,0,0,0,256,81.24c.12,1.46.37,2.66.49,3.76h18.94c-1-2.67-1.58-8.73-1.58-12.26"/></g><path class="cls-4" d="M298.94,24.28l2.55,30.36h-5.33ZM286.08,0l-9.47,85h16.63l1.45-14.08h7.55L303.69,85H322l-9.6-85Z"/><polygon class="cls-4" points="325.05 0 325.05 85 359.54 85 359.54 68.49 343.4 68.49 343.4 0 325.05 0"/></svg>
